<?xml version="1.0" encoding="UTF-8"?>
<svg width="631px" height="631px" viewBox="0 0 631 631" version="1.1" xmlns="http://www.w3.org/2000/svg" xmlns:xlink="http://www.w3.org/1999/xlink">
    <title>Artboard</title>
    <g id="Artboard" stroke="none" stroke-width="1" fill="none" fill-rule="evenodd">
        <rect fill="#121212" x="0" y="0" width="631" height="631"></rect>
        <g id="skull-copy" transform="translate(37.000000, 80.000000)">
            <path d="M276.990909,99.5 C293.84394,99.5 300.462082,104.522323 306.405635,110.799629 L306.819328,111.239569 C306.888134,111.313216 306.956879,111.387021 307.025578,111.460978 L307.43734,111.906494 C307.643064,112.130116 307.848644,112.354999 308.054485,112.580982 L308.466636,113.034369 L308.466636,113.034369 L308.880205,113.490407 C312.309881,117.273791 315.957826,121.291779 321.587214,124.853432 C324.037488,126.403694 330.093718,124.805969 337.128056,122.811938 C343.784209,120.925112 351.293778,118.782811 357.149311,119.198432 C359.247543,119.347362 361.129286,119.826393 362.665453,120.788743 C364.031484,121.64451 365.118382,122.884708 365.841004,124.604954 C366.093604,125.206283 365.728324,127.500213 365.292474,130.731839 C364.195533,138.865163 362.34622,152.749691 365.833271,162.137885 C369.459677,171.901265 366.343801,176.881902 364.039685,180.561708 C363.252288,181.819225 362.56138,182.935965 362.222721,184.030093 C361.52666,186.278899 362.699537,211.365072 365.801981,259.308012 C365.797555,278.892014 360.615835,294.290481 350.219427,305.486591 C349.734304,306.00903 349.103788,306.666366 348.363342,307.43836 C343.939776,312.050401 335.625418,320.726096 330.851594,329.199623 C327.78777,334.637905 326.21417,339.986959 327.855642,344.181823 C330.305474,350.442493 329.331166,351.705954 325.997166,356.076776 C325.727691,356.430053 325.443411,356.802726 325.144832,357.198705 L324.841505,357.602598 C322.068995,361.310153 318.151818,367.011019 313.457999,377.554986 C305.418178,395.61525 299.842318,425.661873 296.751636,467.701629 L296.751636,467.701629 L280.766729,467.701629 C279.204439,463.139788 277.827293,459.705199 276.638128,457.396581 C276.009819,456.176798 275.429051,455.264219 274.901855,454.654491 C274.254404,453.905682 273.655284,453.600178 273.145455,453.600178 C272.169916,453.600178 271.081575,453.75893 270.0578,454.376146 C269.271166,454.850394 268.518019,455.595692 267.891049,456.766156 C266.91647,458.585557 266.236364,461.47798 266.236364,466.065046 C266.236364,467.698788 265.868814,468.976102 265.090852,469.87812 C264.319242,470.772773 263.153309,471.281409 261.616426,471.443405 C258.335698,471.789212 253.440589,470.576429 246.929513,467.845172 C241.686701,421.021855 235.446138,390.919062 228.243716,377.521576 C222.565732,366.959753 216.902037,360.378118 212.816078,355.631374 C210.344772,352.760405 208.454013,350.57835 207.52066,348.581287 C206.821091,347.08444 206.68481,345.701526 207.310394,344.190932 C209.013474,340.078515 208.593922,333.676355 207.268705,327.238744 C205.088794,316.649226 200.469874,306.107327 199.241326,305.394364 C192.079706,301.238258 185.887633,285.797236 180.504824,259.256526 L180.504824,259.256526 L187.725716,183.967516 C185.082753,181.741536 183.628217,178.797965 183.350747,175.14268 C183.074082,171.498008 183.957423,167.159981 185.979141,162.126261 C190.168271,151.696072 188.812543,141.122324 187.837641,133.607816 C187.298148,129.449424 186.827419,126.249362 187.648693,124.638405 C188.441333,123.083613 189.509572,122.420036 190.872975,122.331098 C192.780746,122.20665 195.189944,123.103962 198.097466,124.159513 C204.836647,126.606114 214.137543,129.959561 225.915851,124.890168 C233.724924,121.529136 238.53001,117.150026 243.073867,112.960489 L243.073867,112.960489 L243.802712,112.288684 L243.802712,112.288684 L244.280031,111.850016 C244.439082,111.704159 244.598119,111.558686 244.757266,111.413651 L245.235165,110.979919 C245.314912,110.907868 245.394717,110.83594 245.474596,110.764143 L245.954887,110.334977 C252.614667,104.421337 259.999695,99.5 276.990909,99.5 Z" id="Combined-Shape" stroke="#FFFFFF"></path>
            <path d="M195.830362,235.069935 C198.45169,235.069935 204.148298,236.743535 209.040782,239.329922 C212.594724,241.208695 215.747522,243.565023 216.908611,246.158405 C217.493869,247.465623 216.789116,249.542776 215.574659,251.927753 C213.70378,255.601827 210.48737,260.00435 207.73858,263.770695 C205.10804,267.375015 202.922033,270.420355 202.619028,271.754542 C202.114308,273.976915 201.773215,276.358628 201.492174,278.716493 L201.492174,278.716493 L201.413916,279.385005 C201.388285,279.607707 201.363102,279.830025 201.338213,280.052381 L201.338213,280.052381 L201.264841,280.714884 C201.221323,281.111507 201.178674,281.505858 201.136371,281.897013 C200.679681,286.119833 200.277858,289.969181 199.220734,292.232779 C198.856815,293.012031 198.421025,293.596748 197.843748,293.887009 C197.333691,294.143471 196.722746,294.149453 195.989745,293.902937 C190.400346,292.023159 187.04269,288.775717 185.034275,284.574292 C182.431724,279.129989 182.067537,272.117293 182.022455,264.443902 L182.022455,264.443902 L182.018433,263.487814 L182.017503,261.554017 L182.019023,260.577986 L182.021566,259.103787 C182.022001,258.77478 182.022285,258.444982 182.022285,258.114456 C182.022285,250.320898 183.319847,244.665142 185.611499,240.894137 C188.037284,236.902408 191.584128,235.069935 195.830362,235.069935 Z" id="Oval" stroke="#FFFFFF" transform="translate(199.560360, 264.576997) rotate(-18.000000) translate(-199.560360, -264.576997) "></path>
            <path d="M345.45092,235.139632 C348.072248,235.139632 353.768856,236.813232 358.66134,239.399619 C362.215282,241.278392 365.36808,243.63472 366.529169,246.228102 C367.114427,247.535321 366.409674,249.612473 365.195217,251.997451 C363.324338,255.671524 360.107929,260.074047 357.359138,263.840393 C354.728598,267.444712 352.542591,270.490053 352.239586,271.82424 C351.902615,273.307983 351.638505,274.862649 351.416397,276.435469 L351.416397,276.435469 L351.324381,277.105382 C351.234619,277.776882 351.151728,278.44992 351.073134,279.121544 L351.073134,279.121544 L350.958836,280.121497 C350.889383,280.741981 350.822737,281.358212 350.75693,281.96671 C350.30024,286.18953 349.898416,290.038879 348.841292,292.302477 C348.477373,293.081729 348.041583,293.666446 347.464306,293.956707 C346.954249,294.213168 346.343304,294.219151 345.610303,293.972634 C339.60554,291.953165 336.102137,288.329818 334.063015,283.64139 C331.335624,277.37047 331.193784,269.231995 331.186528,260.499691 L331.186528,260.499691 L331.18648,258.035959 C331.18648,250.321612 332.559362,244.735536 334.915648,241.001669 C337.461682,236.967122 341.160785,235.139632 345.45092,235.139632 Z" id="Oval-Copy" stroke="#FFFFFF" transform="translate(348.955373, 264.646695) scale(-1, 1) rotate(-18.000000) translate(-348.955373, -264.646695) "></path>
            <path d="M275.742815,157.163743 C276.914244,205.504715 277.5,242.237351 277.5,267.361653 C277.5,292.954094 276.283948,316.496801 273.85128,337.987736 C271.099614,316.529704 270.042719,292.991797 270.679586,267.37408 C271.305044,242.215294 272.992906,205.475058 275.742815,157.163743 Z" id="Rectangle" stroke="#FFFFFF"></path>
            <path d="M298.251063,222.288345 C274.41399,235.445006 260.814856,245.103404 257.453662,251.263539 C255.550402,254.751687 256.246686,261.423768 256.246686,264.623237 C256.246686,268.914989 257.783757,273.566203 261.402186,277.109793 C265.552098,281.173874 278.55219,285.403645 300.402462,289.799103 C278.191423,286.370497 264.540677,283.042696 259.450224,279.8157 C252.74961,275.567973 254.044032,268.542697 254.284816,263.079015 C254.406749,260.312217 253.467715,252.262242 255.173907,249.281778 C258.84226,242.87371 273.201312,233.875899 298.251063,222.288345 Z" id="Rectangle-Copy-3" fill="#FFFFFF" transform="translate(277.214451, 256.043724) rotate(94.000000) translate(-277.214451, -256.043724) "></path>
            <path d="M307.873975,281.207411 C301.309715,288.89366 298.050633,296.338388 298.050633,303.527363 C298.050633,306.874275 299.007242,310.853926 300.138008,315.525881 C302.426622,324.981689 305.421062,337.319901 302.300682,353.061986 C301.240658,358.409724 300.047253,366.273827 298.687482,375.236207 C295.948112,393.291652 292.532789,415.814188 288.162978,431.158318 C286.595884,436.661001 284.909543,441.235343 283.082394,444.331654 C281.558841,446.913487 279.960942,448.5 278.196203,448.5 C276.76074,448.5 275.343465,447.491866 273.924287,445.769959 C272.294128,443.792065 270.682656,440.86293 269.108614,437.218721 C265.541801,428.960862 262.188088,417.057815 259.351813,404.133744 C252.425631,372.57317 248.475952,334.811492 252.310677,329.49137 C255.695517,324.795398 253.350277,308.888006 244.965902,281.605405 C251.831972,294.454004 255.275047,304.558784 255.257848,311.925868 C255.240769,319.241328 259.140776,330.940485 263.879177,341.332972 C266.663995,347.440766 269.734426,353.096075 272.453842,357.139924 C275.163178,361.168783 277.571545,363.5 279.044304,363.5 C279.563133,363.5 280.37919,362.870062 281.326498,361.368283 C282.1265,360.100032 283.066178,358.250284 284.072745,355.955087 C285.947066,351.681219 288.060093,345.851944 289.948825,339.369732 C292.800082,329.58409 295.13881,318.311277 295.382321,308.655287 C295.570829,301.18032 296.901609,295.04575 299.391655,290.256645 C301.43581,286.325124 304.262732,283.30748 307.873975,281.207411 Z" id="Oval" stroke="#FFFFFF"></path>
            <path d="M0.519080002,7.55139412 C3.94140767,32.098629 10.8264108,52.096889 21.1603146,67.5517896 C32.555142,84.5933578 48.142126,96.1219551 67.9219497,102.136664 C98.538864,111.446748 124.168733,114.216351 144.817466,116.446358 C163.894987,118.506679 178.704017,120.086199 189.234324,126.013605 C192.812965,128.027986 195.501962,130.439393 197.291808,133.257345 C199.07197,136.060051 199.958631,139.262766 199.958631,142.863414 C199.958631,150.138016 196.365674,159.004939 189.217223,169.475175 C101.446558,161.802094 47.7409985,152.592977 28.1227386,141.798118 C18.3702974,136.431882 11.2633818,121.944667 6.67640698,98.4656876 C2.330864,76.2225065 0.279869275,45.9170716 0.519080002,7.55139412 Z M556.481419,7.55742898 C556.719864,45.9210101 554.668854,76.2239519 550.323593,98.4656876 C545.736618,121.944667 538.629703,136.431882 528.877261,141.798118 C509.257803,152.593637 455.546878,161.80322 367.766474,169.47376 C360.633884,159.003848 357.041369,150.137569 357.041369,142.863414 C357.041369,139.262766 357.92803,136.060051 359.708192,133.257345 C361.498038,130.439393 364.187035,128.027986 367.765676,126.013605 C378.295983,120.086199 393.105013,118.506679 412.182534,116.446358 C432.831267,114.216351 458.461136,111.446748 489.07805,102.136664 C508.857874,96.1219551 524.444858,84.5933578 535.839685,67.5517896 C546.174283,52.0958514 553.059517,32.0959438 556.481419,7.55742898 Z" id="Rectangle-2" stroke="#FFFFFF"></path>
        </g>
    </g>
</svg>