<?xml version="1.0" encoding="UTF-8"?>
<svg width="43px" height="19px" viewBox="0 0 43 19" version="1.1" xmlns="http://www.w3.org/2000/svg" xmlns:xlink="http://www.w3.org/1999/xlink">
    <title>r w</title>
    <g id="Page-1" stroke="none" stroke-width="1" fill="none" fill-rule="evenodd">
        <g id="Artboard-Copy" transform="translate(-6.000000, -11.000000)" fill="#FFFFFF" fill-rule="nonzero">
            <g id="r-w" transform="translate(6.071710, 11.390625)">
                <path d="M0,1.390625 L3.515625,1.390625 L3.515625,2.75 C4.16145833,2.07291667 4.734375,1.609375 5.234375,1.359375 C5.74479167,1.09895833 6.34895833,0.96875 7.046875,0.96875 C7.97395833,0.96875 8.94270833,1.27083333 9.953125,1.875 L8.34375,5.09375 C7.67708333,4.61458333 7.02604167,4.375 6.390625,4.375 C4.47395833,4.375 3.515625,5.82291667 3.515625,8.71875 L3.515625,16.609375 L0,16.609375 L0,1.390625 Z" id="Path"></path>
                <polygon id="Path" points="22.2064704 1.390625 26.1908454 10.078125 30.4877204 0 34.8158454 10.078125 38.7533454 1.390625 42.6908454 1.390625 34.7220954 17.75 30.4877204 7.953125 26.2064704 17.75 18.2533454 1.390625"></polygon>
            </g>
        </g>
    </g>
</svg>