<?xml version="1.0" encoding="UTF-8"?>
<svg width="430px" height="904px" viewBox="0 0 430 904" version="1.1" xmlns="http://www.w3.org/2000/svg" xmlns:xlink="http://www.w3.org/1999/xlink">
    <title>saguaro copy</title>
    <g id="Page-1" stroke="none" stroke-width="1" fill="none" fill-rule="evenodd">
        <g id="saguaro-copy" transform="translate(0.862540, -0.000189)">
            <path d="M243.63746,0.5 C245.475369,0.5 247.233348,1.30801984 248.920083,2.76999122 C250.775051,4.37777782 252.537894,6.76895191 254.214611,9.7892919 C257.962986,16.5413913 261.2608,26.4127377 264.079392,37.8172139 C271.55282,68.0558935 275.63746,109.053155 275.63746,131.500189 C275.63746,132.634119 275.43619,135.307597 275.143499,139.214657 C273.32306,163.515264 267.964984,235.232116 284.666966,281.66941 C286.931236,287.964864 291.776558,291.589912 298.18532,292.797273 C304.868669,294.056363 313.275617,292.664573 322.191292,288.904951 C338.428437,282.057963 356.368275,267.362697 368.567721,246.754895 C376.785889,232.872431 380.852522,215.039788 384.545164,198.810486 C387.722252,184.847068 390.613173,172.075873 395.700468,164.107445 C397.649721,161.054255 399.920879,158.713458 402.671242,157.311546 C405.198947,156.023127 408.128615,155.533687 411.570942,155.995744 C415.417664,156.512083 418.52627,159.422586 420.989941,164.091044 C423.709613,169.2446 425.634661,176.537661 426.82485,185.285279 C429.38558,204.106043 428.529861,229.633085 424.714679,255.175405 C418.243146,298.501766 403.300157,341.977325 381.915825,352.551994 C380.19785,353.401542 378.010456,355.441597 375.267594,358.020706 C368.383326,364.493971 357.876188,374.401571 342.071511,376.504557 C330.172054,378.08791 319.70238,388.449366 312.300396,401.217788 C303.416734,416.542106 298.976158,435.267864 301.652,446.119891 C304.328739,456.975557 303.765304,482.570226 302.890397,523.202037 C302.411347,545.449767 301.835397,572.198256 301.63747,603.497027 C301.507886,623.988559 301.43732,653.50664 301.425777,692.051361 L301.425121,694.523921 L301.425121,694.523921 L301.424852,695.769395 L301.424852,711.699489 C301.424935,712.140551 301.425024,712.582634 301.42512,713.025736 L301.425776,715.696584 C301.437301,757.731564 301.507644,808.77639 301.633888,868.832923 C283.620802,891.915803 264.299767,903.500189 243.63746,903.500189 C222.937464,903.500189 200.435097,891.892905 176.102653,868.741837 C150.084084,705.155723 134.594503,600.057567 129.634653,553.447282 C126.400637,523.055554 124.109806,498.214381 122.239112,477.929138 C118.545502,437.876761 116.476349,415.556704 112.041436,403.334513 C110.009915,397.735838 107.475732,394.225678 104.103867,392.072737 C100.448852,389.739003 95.7896535,389.000189 89.6374599,389.000189 C73.2442389,389.000189 60.04461,380.677709 49.3649289,368.87258 C32.9254477,350.700671 22.4404508,324.278395 15.5319009,306.88699 C14.6669872,304.709678 13.8580796,302.673373 13.1005887,300.811743 C1.793342,273.022747 -1.48717921,239.213854 1.59906386,211.148331 C3.2151541,196.45201 6.57607467,183.331339 11.4532537,173.484401 C15.9793389,164.346314 21.8024449,158.02459 28.7780951,155.980003 C31.5071819,155.180098 34.313876,156.088439 37.1944558,158.285498 C40.4720221,160.785345 43.8356012,164.945054 47.2774857,170.308207 C55.7748898,183.548885 64.7083627,204.091215 73.7950406,225.371916 L74.6892963,227.46725 C74.9875396,228.166334 75.2859376,228.865981 75.5844804,229.565958 L75.5844804,229.565958 L76.4363849,231.563065 C76.8625391,232.561849 77.2889891,233.560833 77.715704,234.559353 L78.5694778,236.55558 L78.5694778,236.55558 L79.4239028,238.549393 C92.3873403,268.764622 105.556427,297.740352 118.065252,306.97766 C120.842035,309.028212 123.59195,310.120866 126.29717,310.100316 C128.875819,310.080728 131.426466,309.055831 133.932083,306.833778 C138.474645,302.805301 142.897909,294.768285 147.113474,281.653193 C153.188992,262.751581 161.986139,215.225754 170.014124,168.097996 L170.776257,163.61177 C175.207163,137.459973 179.366471,111.715402 182.655623,91.3544436 C186.409673,68.1156052 189.022094,51.9047549 189.611183,50.1601469 C195.532196,32.6248372 203.113696,20.7158393 211.561788,12.9652671 C221.506712,3.84144917 232.644776,0.5 243.63746,0.5 Z" id="Rectangle" stroke="#FFFFFF"></path>
            <path d="M264.824104,82.0001885 L271.324104,31.5001885 C278.449513,109.684197 278.408342,178.350864 271.200591,237.500189 C266.358883,277.232928 252.411337,404.041449 253.700591,535.500189 C255.290265,697.591396 272.756451,865.473561 271.200591,870.500189 C269.512246,875.954839 249.108712,694.379861 245.200591,529.000189 C242.586418,418.376463 254.304897,315.111906 258.200591,279.500189 C264.680361,220.266632 266.888199,154.433298 264.824104,82.0001885 Z" id="Rectangle-Copy-17" fill="#D8D8D8" transform="translate(260.730782, 451.060163) scale(-1, 1) translate(-260.730782, -451.060163) "></path>
            <path d="M222.13746,76.5001885 L227.13746,23.5001885 C231.011878,106.017531 229.345211,176.850864 222.13746,236.000189 C217.295753,275.732928 225.848206,414.541449 227.13746,546.000189 C228.727135,708.091396 214.693321,864.473561 213.13746,869.500189 C211.449116,874.954839 217.045582,694.879861 213.13746,529.500189 C210.523287,418.876463 209.241767,314.611906 213.13746,279.000189 C219.617231,219.766632 222.617231,152.266632 222.13746,76.5001885 Z" id="Rectangle-Copy-18" fill="#D8D8D8"></path>
            <path d="M354.13746,135.500189 C356.029058,135.500189 357.71652,136.093937 359.220952,137.215072 C360.827053,138.411973 362.223302,140.201335 363.444449,142.49961 C366.140607,147.573945 367.968989,155.098531 369.184923,164.318768 C371.756351,183.817516 371.567031,210.86265 370.833301,238.479616 L370.767203,240.917714 C370.733504,242.137327 370.698873,243.357654 370.663499,244.578096 L370.591818,247.018956 C370.531352,249.052837 370.469177,251.085928 370.406173,253.115457 L370.330227,255.549004 C370.279406,257.169991 370.22828,258.787989 370.177301,260.401577 C369.649885,277.095192 369.13746,293.317463 369.13746,307.500189 C369.13746,320.769733 361.671058,334.498118 349.771501,347.648092 C335.89643,362.981167 315.98438,377.520259 294.690135,389.61539 C269.030043,404.190322 241.360657,415.216541 219.809317,419.792402 C209.503608,421.980548 200.604058,422.695518 194.009583,421.598994 C190.935794,421.087887 188.369314,420.184228 186.410997,418.840155 C184.571202,417.577429 183.275906,415.924807 182.613832,413.848302 C181.63768,410.786733 181.712856,407.826176 182.653414,404.925368 C183.685433,401.742483 185.751204,398.634669 188.600143,395.541415 C195.982367,387.526119 208.591487,379.635923 222.427765,370.966681 C253.094233,351.752334 289.63746,328.734776 289.63746,292.500189 C289.63746,260.280652 299.215297,221.217945 312.061277,190.091147 C318.777021,173.818382 326.385099,159.715071 333.989144,149.901256 C340.949753,140.917862 347.88619,135.500189 354.13746,135.500189 Z" id="Oval" stroke="#FFFFFF" fill="#121212"></path>
            <path d="M197.13746,70.0001885 L214.63746,23.5001885 C200.845211,100.350864 190.345211,168.350864 183.13746,227.500189 C178.295753,267.232928 164.348206,394.041449 165.63746,525.500189 C167.227135,687.591396 184.693321,855.473561 183.13746,860.500189 C181.449116,865.954839 161.045582,684.379861 157.13746,519.000189 C154.523287,408.376463 166.241767,305.111906 170.13746,269.500189 C176.617231,210.266632 185.617231,143.766632 197.13746,70.0001885 Z" id="Rectangle" fill="#D8D8D8"></path>
            <path d="M16.1374599,179.000189 C17.0953262,221.212204 23.7619929,255.212204 36.1374599,281.000189 C48.512927,306.788173 78.3462603,340.95484 125.63746,383.500189 C85.0419779,357.783817 55.2086446,327.11715 36.1374599,291.500189 C17.0662752,255.883227 10.3996086,218.383227 16.1374599,179.000189 Z" id="Rectangle" fill="#D8D8D8"></path>
            <path d="M319.13746,179.000189 C320.095326,221.212204 326.761993,255.212204 339.13746,281.000189 C351.512927,306.788173 381.34626,340.95484 428.63746,383.500189 C388.041978,357.783817 358.208645,327.11715 339.13746,291.500189 C320.066275,255.883227 313.399609,218.383227 319.13746,179.000189 Z" id="Rectangle-Copy-19" fill="#D8D8D8" transform="translate(372.892169, 281.250189) scale(-1, 1) translate(-372.892169, -281.250189) "></path>
            <path d="M248.13746,203.000189 C249.095326,245.212204 255.761993,279.212204 268.13746,305.000189 C280.512927,330.788173 310.34626,364.95484 357.63746,407.500189 C317.041978,381.783817 287.208645,351.11715 268.13746,315.500189 C249.066275,279.883227 242.399609,242.383227 248.13746,203.000189 Z" id="Rectangle-Copy-20" fill="#D8D8D8" transform="translate(301.892169, 305.250189) scale(-1, 1) translate(-301.892169, -305.250189) "></path>
        </g>
    </g>
</svg>